<svg width="1728" height="1336" viewBox="0 0 1728 1336" fill="none" xmlns="http://www.w3.org/2000/svg">
<path fill-rule="evenodd" clip-rule="evenodd" d="M650.634 120.157C993.157 123.506 1060.29 418.124 1322.11 548.561C1637.65 705.766 2319.45 701.375 2306.34 945.026C2293.1 1191.18 1596.14 1155.9 1280.76 1317.08C1013.33 1453.74 999.854 1758.09 650.634 1791.16C295.982 1824.73 -12.0103 1632.01 -220.151 1459.17C-397.522 1311.89 -402.664 1124.61 -368.32 945.026C-338.523 789.221 -199.936 661.89 -43.4485 535.211C158.273 371.912 308.361 116.811 650.634 120.157Z" fill="#F19250"/>
<path fill-rule="evenodd" clip-rule="evenodd" d="M1518.79 381.268C1705.26 385.466 1896.11 327.768 2064.74 386.428C2249.9 450.835 2469.42 561.244 2469 711.802C2468.55 870.773 2186.23 938.082 2062.83 1068.64C1988.74 1147.02 1969.29 1240.97 1894.89 1319.19C1781.96 1437.92 1714.66 1656.84 1518.79 1640.65C1312.87 1623.64 1338.51 1374.65 1199.49 1261.72C1104.7 1184.72 894.486 1196.99 850.98 1098.2C807.469 999.39 989.397 918.916 1003 815.547C1023.42 660.438 808.542 478.683 947.973 361.285C1076.38 253.168 1323.61 376.874 1518.79 381.268Z" fill="#69BDA5"/>
<path fill-rule="evenodd" clip-rule="evenodd" d="M504.765 -275.207C710.426 -314.988 998.19 -375.133 1139.36 -279.911C1292.17 -176.831 1047.55 -17.7863 1085.11 116.257C1113.2 216.491 1315.8 277.895 1324.07 379.324C1334.22 503.742 1294.77 643.59 1134.91 727.039C971.257 812.469 718.6 837.998 504.765 807.018C307.421 778.427 219.107 651.767 68.6477 572.56C-59.1334 505.291 -251.967 472.616 -309.478 378.372C-367.379 283.487 -309.483 176.413 -227.19 87.7623C-153.846 8.7524 0.546852 -24.0312 118.25 -82.3991C250.654 -148.057 339.371 -243.215 504.765 -275.207Z" fill="#E84F2D"/>
<path fill-rule="evenodd" clip-rule="evenodd" d="M1682.24 -402.114C1866.61 -380.666 1995.61 -289.572 2131.45 -211.514C2248.5 -144.246 2360.15 -74.3176 2412.92 17.7809C2466.41 111.141 2499.34 217.634 2428.32 306.654C2360.09 392.157 2166.21 402.056 2053.45 468.302C1908.98 553.166 1884.01 741.797 1682.24 744.935C1482.46 748.042 1416.59 576.398 1296.84 480.07C1216.09 415.113 1173.15 342.357 1098.03 274.991C980.562 169.63 736.385 102.097 733.94 -24.7902C731.477 -152.658 909.119 -262.584 1086.32 -333.091C1259.31 -401.923 1478.65 -425.797 1682.24 -402.114Z" fill="#50BDC8"/>
</svg>
